<svg width="30" height="36" viewBox="0 0 30 36" fill="none" xmlns="http://www.w3.org/2000/svg">
<path d="M2.57772 9.24889H6.30885C5.87836 11.2789 5.71274 13.3862 5.71274 15.42C5.71274 16.0245 6.20315 16.5149 6.80766 16.5149C7.41217 16.5149 7.90258 16.0245 7.90258 15.42C7.90258 13.394 8.07348 11.2668 8.54559 9.24889H21.2957C21.7678 11.2668 21.9387 13.394 21.9387 15.42C21.9387 16.0245 22.4291 16.5149 23.0336 16.5149C23.6382 16.5149 24.1286 16.0245 24.1286 15.42C24.1286 13.3862 23.9629 11.2789 23.5325 9.24889H27.4263C27.7209 9.24889 27.9611 9.48159 27.9733 9.77322L29.9977 34.4459L29.9981 34.4459C30.0228 34.7472 29.7986 35.0116 29.4973 35.0363C29.482 35.0376 29.4668 35.0382 29.4517 35.0382H0.547474C0.245124 35.0382 0 34.793 0 34.4907C0 34.4676 0.00142791 34.4449 0.004203 34.4226L2.02832 9.75361L2.57367 9.79639L2.02803 9.75161C2.0516 9.46395 2.29365 9.24652 2.57774 9.24892L2.57772 9.24889Z" fill="#282828"/>
<path d="M6.26025 15.4201C6.26025 15.7225 6.50538 15.9676 6.80773 15.9676C7.11008 15.9676 7.3552 15.7225 7.3552 15.4201C7.3552 8.47359 9.36056 4.05807 11.9274 2.15191C12.8762 1.4473 13.9007 1.09497 14.9207 1.09497C15.9408 1.09497 16.9653 1.4473 17.9141 2.15193C20.4809 4.05804 22.4863 8.4735 22.4863 15.4201C22.4863 15.7224 22.7314 15.9676 23.0337 15.9676C23.3361 15.9676 23.5812 15.7224 23.5812 15.4201C23.5812 8.08894 21.3807 3.36664 18.5642 1.27509C17.4196 0.425045 16.1723 0 14.9207 0C13.6692 0 12.4219 0.42502 11.2773 1.27506C8.46074 3.36667 6.26025 8.08901 6.26025 15.4201V15.4201Z" fill="#282828"/>
</svg>
