<svg width="16" height="16" viewBox="0 0 16 16" fill="none">
<path d="M8 16C12.4183 16 16 12.4183 16 8C16 3.58172 12.4183 0 8 0C3.58172 0 0 3.58172 0 8C0 12.4183 3.58172 16 8 16Z" fill="#282828"/>
<path d="M10.925 6.31255L12.1625 5.07505C12.2125 5.02505 12.2125 4.95005 12.1625 4.90005L11.1 3.83755C11.05 3.78755 10.975 3.78755 10.925 3.83755L9.6875 5.07505L10.925 6.31255Z" fill="white"/>
<path d="M9.32496 5.4375L4.74996 10.0125L4.19996 11.6375C4.16246 11.7375 4.26246 11.825 4.36246 11.8L5.98746 11.25L10.5625 6.675L9.32496 5.4375Z" fill="white"/>
</svg>
